<svg width="16" height="16" viewBox="0 0 16 16" fill="none" xmlns="http://www.w3.org/2000/svg">
<path d="M15.708 14.2975L12.611 11.1992C14.9283 8.10242 14.2965 3.71338 11.1997 1.39604C8.10291 -0.921302 3.71387 -0.289438 1.39653 2.80734C-0.920813 5.90412 -0.28895 10.2932 2.80783 12.6105C5.29542 14.472 8.71207 14.472 11.1997 12.6105L14.298 15.7088C14.6874 16.0982 15.3187 16.0982 15.708 15.7088C16.0973 15.3195 16.0973 14.6882 15.708 14.2989L15.708 14.2975ZM7.02958 12.0125C4.27731 12.0125 2.04618 9.78136 2.04618 7.02909C2.04618 4.27682 4.27731 2.04569 7.02958 2.04569C9.78185 2.04569 12.013 4.27682 12.013 7.02909C12.01 9.78011 9.78063 12.0096 7.02958 12.0125Z" fill="#888888"/>
</svg>
